<?xml version="1.0" encoding="utf-8"?>
<!-- Generator: Adobe Illustrator 25.2.1, SVG Export Plug-In . SVG Version: 6.00 Build 0)  -->
<svg version="1.1" id="Layer_1" xmlns="http://www.w3.org/2000/svg" xmlns:xlink="http://www.w3.org/1999/xlink" x="0px" y="0px"
	 viewBox="0 0 480 425" style="enable-background:new 0 0 480 425;" xml:space="preserve">
<style type="text/css">
    @import url('https://fonts.googleapis.com/css?family=Roboto:300,400,700');
	.st0{fill:#383838;}
	.st1{font-family:'Roboto';}
	.st2{font-size:14px;}
	.st3{opacity:0.5;}
	.st4{fill:#231F20;stroke:#231F20;stroke-miterlimit:10;}
	.st5{fill:none;stroke:#000000;stroke-width:0.5;stroke-linecap:square;stroke-miterlimit:1;}
	.st6{fill:#231F20;}
	.st7{fill:#77787B;}
</style>
<image style="overflow:visible;enable-background:new    ;" width="960" height="926" xlink:href="time-hkg-1.png"  transform="matrix(0.5 0 0 0.5 -480 -26)">
</image>
<image style="overflow:visible;enable-background:new    ;" width="960" height="926" xlink:href="time-hkg-2.png"  transform="matrix(0.5 0 0 0.5 0 -26)">
</image>
<g>
	<g>
		<text transform="matrix(1 0 0 1 171.4058 36.781)" class="st0 st1 st2">LUNES 12 DE AGOSTO, 23:00 horas</text>
	</g>
</g>
<g class="st3">
	<text transform="matrix(1 0 0 1 -347.7253 36.781)" class="st0 st1 st2">LUNES 5 DE AGOSTO, 23:00 horas</text>
</g>
<path class="st4" d="M-210,250.6c-1.4,0-2.5,1.1-2.5,2.5s1.1,2.5,2.5,2.5s2.5-1.1,2.5-2.5C-207.5,251.7-208.6,250.6-210,250.6"/>
<g>
	<g>
		<g>
			<path class="st5" d="M-275.6,267.2c-2.3-12.6-14.2-21.1-26.9-19.1"/>
			<g>
				<polygon points="-274,265.1 -274.4,264.9 -275.7,267 -277.7,265.6 -278,266 -275.5,267.7 				"/>
			</g>
		</g>
	</g>
	<path class="st4" d="M-252.1,106.5c-1.4,0-2.5,1.1-2.5,2.5s1.1,2.5,2.5,2.5s2.5-1.1,2.5-2.5S-250.7,106.5-252.1,106.5"/>
	<path class="st4" d="M-61.6,150c-1.4,0-2.5,1.1-2.5,2.5s1.1,2.5,2.5,2.5s2.5-1.1,2.5-2.5S-60.2,150-61.6,150"/>
	<path class="st4" d="M-381.3,348.1c-1.4,0-2.5,1.1-2.5,2.5s1.1,2.5,2.5,2.5c1.4,0,2.5-1.1,2.5-2.5S-379.9,348.1-381.3,348.1"/>
	<path class="st4" d="M-165.8,131c-1.4,0-2.5,1.1-2.5,2.5s1.1,2.5,2.5,2.5s2.5-1.1,2.5-2.5S-164.4,131-165.8,131"/>
	<text transform="matrix(1 0 0 1 -244.6915 113.823)" class="st6 st1 st2">Beijing</text>
	<text transform="matrix(1 0 0 1 -441.5051 354.7959)" class="st7 st1 st2">Bangkok</text>
	<g>
		<text transform="matrix(1 0 0 1 -56.6946 157.0259)" class="st7 st1 st2">Tokio</text>
	</g>
	<text transform="matrix(1 0 0 1 -379.3723 249.9622)" class="st6 st1 st2">Hong Kong</text>
</g>
<g>
	<g>
		<g>
			<path class="st5" d="M204.7,268.9c-1.2-6-7-10.1-13.1-9.1"/>
			<g>
				<polygon points="206.3,266.8 205.8,266.5 204.6,268.7 202.6,267.4 202.3,267.8 204.8,269.4 				"/>
			</g>
		</g>
	</g>
	<path class="st4" d="M226.4,104.5c-1.4,0-2.5,1.1-2.5,2.5s1.1,2.5,2.5,2.5s2.5-1.1,2.5-2.5S227.7,104.5,226.4,104.5"/>
	<path class="st4" d="M268.5,248.6c-1.4,0-2.5,1.1-2.5,2.5s1.1,2.5,2.5,2.5s2.5-1.1,2.5-2.5C271,249.7,269.9,248.6,268.5,248.6"/>
	<path class="st4" d="M97.2,346.1c-1.4,0-2.5,1.1-2.5,2.5s1.1,2.5,2.5,2.5s2.5-1.1,2.5-2.5S98.5,346.1,97.2,346.1"/>
	<path class="st4" d="M312.7,129c-1.4,0-2.5,1.1-2.5,2.5s1.1,2.5,2.5,2.5s2.5-1.1,2.5-2.5S314.1,129,312.7,129"/>
	<text transform="matrix(1 0 0 1 231.7814 111.823)" class="st6 st1 st2">Beijing</text>
	<g>
		<text transform="matrix(1 0 0 1 422.7782 155.0259)" class="st7 st1 st2">Tokio</text>
	</g>
	<text transform="matrix(1 0 0 1 272.3242 135.2849)" class="st7 st1 st2">Seúl</text>
	<text transform="matrix(1 0 0 1 36.9677 352.7959)" class="st7 st1 st2">Bangkok</text>
	<text transform="matrix(1 0 0 1 118.9548 262.6707)" class="st6 st1 st2">Hong Kong</text>
</g>
</svg>
